<?xml version="1.0" standalone="no"?>
<!DOCTYPE svg PUBLIC "-//W3C//DTD SVG 20010904//EN"
 "http://www.w3.org/TR/2001/REC-SVG-20010904/DTD/svg10.dtd">
<svg version="1.0" xmlns="http://www.w3.org/2000/svg"
 width="260.000000pt" height="260.000000pt" viewBox="0 0 260.000000 260.000000"
 preserveAspectRatio="xMidYMid meet">
<metadata>
Created by potrace 1.14, written by Peter Selinger 2001-2017
</metadata>
<g transform="translate(0.000000,260.000000) scale(0.100000,-0.100000)"
fill="#000000" stroke="none">
<path d="M0 1300 l0 -1300 1300 0 1300 0 0 1300 0 1300 -1300 0 -1300 0 0
-1300z m600 180 c101 -253 187 -457 191 -453 4 5 88 211 187 458 l180 450 96
3 96 3 0 -571 0 -570 -77 0 -76 0 7 383 c3 210 9 418 12 462 l5 80 -188 -463
-188 -463 -59 3 -58 3 -174 430 c-96 237 -178 439 -183 450 -5 12 -7 -164 -3
-432 l5 -453 -76 0 -77 0 0 570 0 570 98 0 98 0 184 -460z m1760 406 l0 -53
-310 -453 c-170 -249 -310 -454 -310 -456 0 -2 146 -4 325 -4 l325 0 0 -60 0
-60 -415 0 -415 0 0 58 0 57 309 450 308 450 -303 3 -304 2 0 60 0 60 395 0
395 0 0 -54z"/>
</g>
</svg>
