<svg width="42" height="41" viewBox="0 0 42 41" fill="none" xmlns="http://www.w3.org/2000/svg">
<path d="M7.31062 22.4368L7.69125 26.585L7.31062 30.9438C7.29094 31.1034 7.16625 31.2246 7.02187 31.2246C6.8775 31.2246 6.74625 31.1034 6.74625 30.9438L6.37875 26.585L6.74625 22.4368C6.74625 22.2964 6.87094 22.1688 7.02187 22.1688C7.16625 22.1688 7.29094 22.2964 7.31062 22.4368ZM8.715 19.5267C8.53125 19.5267 8.40656 19.6671 8.38687 19.8457L8.05875 26.585L8.38687 30.9438C8.40656 31.1225 8.53125 31.2629 8.715 31.2629C8.87906 31.2629 9.02344 31.1225 9.02344 30.9438L9.40406 26.585L9.02344 19.8457C9.02344 19.6671 8.87906 19.5267 8.715 19.5267ZM10.3884 17.9886C10.185 17.9886 10.0406 18.129 10.0209 18.3269L9.73219 26.6233L10.0209 30.9502C10.0406 31.148 10.185 31.2884 10.3884 31.2884C10.5722 31.2884 10.7362 31.148 10.7362 30.9502L11.0841 26.6233L10.7362 18.3269C10.7362 18.129 10.5722 17.9886 10.3884 17.9886ZM0.4725 24.1535C0.380625 24.1535 0.328125 24.2237 0.308437 24.3131L0 26.585L0.308437 28.8187C0.328125 28.908 0.380625 28.9782 0.4725 28.9782C0.564375 28.9782 0.616875 28.908 0.636562 28.8187L1.00406 26.585L0.636562 24.3131C0.616875 24.2237 0.564375 24.1535 0.4725 24.1535V24.1535ZM2.02125 22.7559C1.92937 22.7559 1.85719 22.8261 1.85719 22.9154L1.43719 26.585L1.85719 30.1652C1.85719 30.2737 1.92937 30.3439 2.02125 30.3439C2.11312 30.3439 2.18531 30.2737 2.205 30.1844L2.6775 26.585L2.205 22.9154C2.18531 22.8261 2.11312 22.7559 2.02125 22.7559V22.7559ZM3.68156 22.0283C3.57 22.0283 3.47812 22.1177 3.465 22.239L3.08437 26.585L3.465 30.7843C3.48469 30.8928 3.57656 30.9821 3.68156 30.9821C3.79312 30.9821 3.885 30.8928 3.885 30.7843L4.33781 26.585L3.885 22.239C3.885 22.1177 3.79312 22.0283 3.68156 22.0283V22.0283ZM5.34187 21.8879C5.21719 21.8879 5.10562 21.9773 5.10562 22.1177L4.725 26.585L5.10562 30.9119C5.10562 31.0523 5.21719 31.1417 5.34187 31.1417C5.46656 31.1417 5.57812 31.0523 5.59781 30.9119L6.01781 26.585L5.59781 22.1177C5.57812 21.9773 5.46656 21.8879 5.34187 21.8879ZM21.1837 14.8105C21.1116 14.7594 21 14.7211 20.9081 14.7211C20.7637 14.7211 20.6325 14.7722 20.5406 14.8424C20.4159 14.9509 20.3372 15.1104 20.3241 15.2699V15.321L20.1075 26.5978L20.2191 28.6719L20.3306 30.6949C20.3503 30.9949 20.6062 31.2438 20.9147 31.2438C21.2231 31.2438 21.4791 30.9949 21.4791 30.6949L21.735 26.5978L21.4791 15.2699C21.4528 15.0785 21.3478 14.8998 21.1837 14.8105V14.8105ZM19.4316 15.7869C19.3397 15.7358 19.2478 15.6975 19.1428 15.6975C19.0378 15.6975 18.9394 15.7358 18.8541 15.7869C18.7097 15.8762 18.6178 16.0358 18.6178 16.2145L18.5981 16.323L18.4144 26.585C18.4144 26.585 18.4144 26.6042 18.6178 30.7715V30.7907C18.6178 30.8992 18.6572 31.0013 18.7294 31.0906C18.8409 31.2119 18.9853 31.2884 19.1494 31.2884C19.2937 31.2884 19.425 31.2182 19.5169 31.1289C19.6284 31.0396 19.6809 30.9183 19.6809 30.7715L19.7006 30.3439L19.9041 26.6042L19.6875 16.2145C19.6678 16.0358 19.5759 15.8762 19.4316 15.7869V15.7869ZM12.1209 17.2228C11.9175 17.2228 11.7403 17.4015 11.7403 17.6121L11.4516 26.585L11.7403 30.8736C11.76 31.0842 11.9241 31.2438 12.1209 31.2438C12.3375 31.2438 12.5016 31.0842 12.5212 30.8736L12.8494 26.585L12.5212 17.6121C12.5081 17.4015 12.3441 17.2228 12.1209 17.2228ZM36.8419 21.2306C36.1331 21.2306 35.4572 21.371 34.8337 21.6199C34.4137 17.1015 30.5156 13.5532 25.7578 13.5532C24.5897 13.5532 23.4609 13.7638 22.4569 14.1531C22.0566 14.2935 21.945 14.4339 21.945 14.7403V30.6758C21.945 30.9949 22.2009 31.2246 22.5094 31.2629H36.8353C39.6769 31.2629 41.9934 29.0293 41.9934 26.2659C42 23.4834 39.6834 21.2306 36.8419 21.2306V21.2306ZM17.3709 17.3823C17.0953 17.3823 16.8787 17.5929 16.8591 17.8801L16.6425 26.6042L16.8591 30.7907C16.8787 31.0587 17.0953 31.2693 17.3709 31.2693C17.6466 31.2693 17.8631 31.0587 17.8631 30.7907L18.1191 26.6042L17.8631 17.8801C17.8434 17.5929 17.6466 17.3823 17.3709 17.3823ZM13.8534 16.8846C13.6369 16.8846 13.4334 17.0824 13.4334 17.3121L13.1775 26.585L13.4334 30.8545C13.4531 31.0842 13.6369 31.2629 13.8534 31.2629C14.0897 31.2629 14.2734 31.0842 14.2931 30.8545L14.5819 26.585L14.2931 17.3121C14.2734 17.0824 14.0897 16.8846 13.8534 16.8846V16.8846ZM15.6056 17.1015C15.3497 17.1015 15.1528 17.2994 15.1528 17.5419L14.8969 26.585L15.1528 30.8226C15.1725 31.0715 15.3562 31.2629 15.6056 31.2629C15.855 31.2629 16.0584 31.0651 16.0584 30.8226L16.3341 26.585L16.0584 17.5419C16.0584 17.293 15.8616 17.1015 15.6056 17.1015V17.1015Z" fill="#5E638E"/>
</svg>
