<svg width="32" height="33" viewBox="0 0 32 33" fill="none" xmlns="http://www.w3.org/2000/svg">
<path d="M16 0C7.16364 0 0 7.38675 0 16.5C0 25.6133 7.16364 33 16 33C24.8364 33 32 25.6133 32 16.5C32 7.38675 24.8364 0 16 0ZM23.806 23.7858C23.5491 24.255 23.0764 24.519 22.5891 24.519C22.3612 24.519 22.1261 24.4602 21.9103 24.3365C19.9127 23.1815 17.7358 22.474 15.4352 22.2337C13.1297 21.9955 10.8533 22.2367 8.66667 22.9567C7.93697 23.197 7.15153 22.7812 6.9188 22.0275C6.68365 21.2725 7.08849 20.4653 7.82061 20.2238C10.3709 19.3835 13.0303 19.0977 15.7164 19.3792C18.3976 19.6607 20.9382 20.4858 23.2703 21.8338C23.9418 22.2193 24.1818 23.0938 23.806 23.7858ZM25.7212 18.774C25.4739 19.2647 24.9891 19.5462 24.4873 19.5462C24.2691 19.5462 24.0509 19.4947 23.8448 19.3835C21.3891 18.0645 18.737 17.2477 15.9564 16.9567C13.1539 16.661 10.3782 16.9187 7.70182 17.7147C6.96243 17.9312 6.19153 17.4953 5.98062 16.733C5.76728 15.972 6.19393 15.177 6.9309 14.9572C9.95151 14.059 13.0836 13.7712 16.2376 14.1012C19.3697 14.4303 22.3612 15.3502 25.1321 16.8392C25.8109 17.2055 26.0776 18.0715 25.7212 18.774ZM26.4145 14.6045C26.2061 14.6045 25.9952 14.556 25.7939 14.454C22.88 12.9555 19.7454 12.0223 16.4751 11.68C13.2 11.3345 9.94182 11.6015 6.78788 12.47C6.04606 12.673 5.28484 12.2192 5.08606 11.453C4.88727 10.6877 5.3285 9.901 6.07274 9.69675C9.55153 8.73875 13.1491 8.447 16.7588 8.8255C20.3636 9.20175 23.8206 10.232 27.0352 11.8853C27.7236 12.2388 28.0024 13.101 27.6606 13.8095C27.4182 14.3138 26.9261 14.6045 26.4145 14.6045Z" fill="#383E74" fill-opacity="0.8"/>
</svg>
