<svg width="33" height="33" viewBox="0 0 33 33" fill="none" xmlns="http://www.w3.org/2000/svg">
<path d="M32.6713 9.9001C32.6713 9.9001 32.349 7.6249 31.3564 6.62588C30.0996 5.31104 28.6945 5.30459 28.05 5.22725C23.4352 4.89209 16.5064 4.89209 16.5064 4.89209H16.4936C16.4936 4.89209 9.56484 4.89209 4.95 5.22725C4.30547 5.30459 2.90039 5.31104 1.64355 6.62588C0.650977 7.6249 0.335156 9.9001 0.335156 9.9001C0.335156 9.9001 0 12.5749 0 15.2433V17.744C0 20.4124 0.328711 23.0872 0.328711 23.0872C0.328711 23.0872 0.650976 25.3624 1.63711 26.3614C2.89395 27.6763 4.54395 27.6312 5.27871 27.7729C7.92129 28.0243 16.5 28.1017 16.5 28.1017C16.5 28.1017 23.4352 28.0888 28.05 27.7601C28.6945 27.6827 30.0996 27.6763 31.3564 26.3614C32.349 25.3624 32.6713 23.0872 32.6713 23.0872C32.6713 23.0872 33 20.4188 33 17.744V15.2433C33 12.5749 32.6713 9.9001 32.6713 9.9001ZM13.0904 20.7798V11.505L22.0043 16.1585L13.0904 20.7798Z" fill="#383E74" fill-opacity="0.8"/>
</svg>
