<svg width="32" height="33" viewBox="0 0 32 33" fill="none" xmlns="http://www.w3.org/2000/svg">
<path d="M16 2.97129C20.275 2.97129 20.7813 2.99062 22.4625 3.06797C24.025 3.13887 24.8688 3.40957 25.4313 3.63516C26.175 3.93164 26.7125 4.29258 27.2688 4.86621C27.8313 5.44629 28.175 5.99414 28.4625 6.76113C28.6813 7.34121 28.9438 8.21777 29.0125 9.82266C29.0875 11.5629 29.1063 12.085 29.1063 16.4871C29.1063 20.8957 29.0875 21.4178 29.0125 23.1516C28.9438 24.7629 28.6813 25.633 28.4625 26.2131C28.175 26.9801 27.825 27.5344 27.2688 28.108C26.7063 28.6881 26.175 29.0426 25.4313 29.3391C24.8688 29.5647 24.0188 29.8354 22.4625 29.9062C20.775 29.9836 20.2688 30.0029 16 30.0029C11.725 30.0029 11.2188 29.9836 9.5375 29.9062C7.975 29.8354 7.13125 29.5647 6.56875 29.3391C5.825 29.0426 5.2875 28.6816 4.73125 28.108C4.16875 27.5279 3.825 26.9801 3.5375 26.2131C3.31875 25.633 3.05625 24.7564 2.9875 23.1516C2.9125 21.4113 2.89375 20.8893 2.89375 16.4871C2.89375 12.0785 2.9125 11.5564 2.9875 9.82266C3.05625 8.21133 3.31875 7.34121 3.5375 6.76113C3.825 5.99414 4.175 5.43984 4.73125 4.86621C5.29375 4.28613 5.825 3.93164 6.56875 3.63516C7.13125 3.40957 7.98125 3.13887 9.5375 3.06797C11.2188 2.99062 11.725 2.97129 16 2.97129ZM16 0C11.6563 0 11.1125 0.0193359 9.40625 0.0966797C7.70625 0.174023 6.5375 0.457617 5.525 0.863672C4.46875 1.28906 3.575 1.8498 2.6875 2.77148C1.79375 3.68672 1.25 4.6084 0.8375 5.69121C0.44375 6.7418 0.16875 7.94062 0.09375 9.69375C0.01875 11.4598 0 12.0205 0 16.5C0 20.9795 0.01875 21.5402 0.09375 23.2998C0.16875 25.0529 0.44375 26.2582 0.8375 27.3023C1.25 28.3916 1.79375 29.3133 2.6875 30.2285C3.575 31.1437 4.46875 31.7109 5.51875 32.1299C6.5375 32.5359 7.7 32.8195 9.4 32.8969C11.1063 32.9742 11.65 32.9936 15.9938 32.9936C20.3375 32.9936 20.8813 32.9742 22.5875 32.8969C24.2875 32.8195 25.4563 32.5359 26.4688 32.1299C27.5188 31.7109 28.4125 31.1437 29.3 30.2285C30.1875 29.3133 30.7375 28.3916 31.1438 27.3088C31.5375 26.2582 31.8125 25.0594 31.8875 23.3063C31.9625 21.5467 31.9813 20.9859 31.9813 16.5064C31.9813 12.027 31.9625 11.4662 31.8875 9.70664C31.8125 7.95352 31.5375 6.74824 31.1438 5.7041C30.75 4.6084 30.2063 3.68672 29.3125 2.77148C28.425 1.85625 27.5313 1.28906 26.4813 0.870117C25.4625 0.464062 24.3 0.180469 22.6 0.103125C20.8875 0.0193359 20.3438 0 16 0Z" fill="#383E74" fill-opacity="0.8"/>
<path d="M16 8.02441C11.4625 8.02441 7.78125 11.8207 7.78125 16.5C7.78125 21.1793 11.4625 24.9756 16 24.9756C20.5375 24.9756 24.2188 21.1793 24.2188 16.5C24.2188 11.8207 20.5375 8.02441 16 8.02441ZM16 21.9979C13.0563 21.9979 10.6687 19.5357 10.6687 16.5C10.6687 13.4643 13.0563 11.0021 16 11.0021C18.9438 11.0021 21.3312 13.4643 21.3312 16.5C21.3312 19.5357 18.9438 21.9979 16 21.9979Z" fill="#383E74" fill-opacity="0.8"/>
<path d="M26.4625 7.68916C26.4625 8.78487 25.6 9.66788 24.5438 9.66788C23.4813 9.66788 22.625 8.77842 22.625 7.68916C22.625 6.59346 23.4875 5.71045 24.5438 5.71045C25.6 5.71045 26.4625 6.5999 26.4625 7.68916Z" fill="#383E74" fill-opacity="0.8"/>
</svg>
