<svg width="33" height="27" viewBox="0 0 33 27" fill="none" xmlns="http://www.w3.org/2000/svg">
<path d="M10.3815 27C22.8312 27 29.6426 16.6112 29.6426 7.60485C29.6426 7.31279 29.6362 7.01425 29.6233 6.72219C30.9483 5.75729 32.0918 4.56212 33 3.19285C31.766 3.74571 30.4558 4.10678 29.1141 4.26372C30.5268 3.41107 31.5845 2.07159 32.0912 0.493596C30.7623 1.28666 29.3089 1.8461 27.7935 2.14793C26.7724 1.05544 25.4224 0.332086 23.9521 0.0896968C22.4818 -0.152692 20.9731 0.0993879 19.6594 0.806964C18.3456 1.51454 17.3 2.6382 16.684 4.00422C16.0681 5.37024 15.9162 6.90253 16.2519 8.3642C13.5609 8.22822 10.9284 7.52433 8.52497 6.29815C6.12154 5.07197 4.00083 3.35088 2.30033 1.24645C1.43605 2.74694 1.17158 4.52251 1.56067 6.2123C1.94976 7.90208 2.96321 9.37929 4.39506 10.3437C3.32011 10.3093 2.26872 10.0179 1.32773 9.49348V9.57785C1.32677 11.1525 1.86738 12.6789 2.85768 13.8976C3.84797 15.1162 5.22682 15.952 6.75984 16.2627C5.76408 16.537 4.71898 16.577 3.70541 16.3795C4.138 17.7337 4.97966 18.9182 6.11293 19.7675C7.24621 20.6169 8.61454 21.0888 10.027 21.1173C7.62908 23.014 4.66699 24.0428 1.61777 24.0379C1.07702 24.0371 0.536799 24.0037 0 23.9379C3.09768 25.9391 6.70111 27.0019 10.3815 27Z" fill="#383E74" fill-opacity="0.8"/>
</svg>
